<svg width="128" height="148" viewBox="0 0 128 148" xmlns="http://www.w3.org/2000/svg"><g transform="translate(0, 84)"><path d="M64 0 L128 32 L64 64 L0 32 Z" fill="#8D6E63"/><path d="M24 20 L24 -28 L64 -48 L64 0 L24 20 Z" fill="#B0BEC5"/><path d="M104 20 L104 -28 L64 -48 L64 0 L104 20 Z" fill="#CFD8DC"/><path d="M64 -48 L24 -28 L64 -8 L104 -28 Z" fill="#546E7A"/><path d="M64 -48 L24 -28 L24 -20 L64 -40 Z" fill="#455A64"/><path d="M64 -48 L104 -28 L104 -20 L64 -40 Z" fill="#37474F"/><path d="M36 -10 L36 0 L48 -6 L48 -16 Z" fill="#81D4FA"/><path d="M80 -16 L80 -6 L92 0 L92 -10 Z" fill="#81D4FA"/></g></svg>
            
