<svg width="128" height="148" viewBox="0 0 128 148" xmlns="http://www.w3.org/2000/svg"><g transform="translate(0, 84)"><path d="M64 0 L128 32 L64 64 L0 32 Z" fill="#795548"/><path d="M16 24 L16 -40 L64 -64 L64 0 L16 24 Z" fill="#FFCC80"/><path d="M112 24 L112 -40 L64 -64 L64 0 L112 24 Z" fill="#FFE0B2"/><path d="M64 -64 L16 -40 L64 -16 L112 -40 Z" fill="#D32F2F"/><path d="M24 0 L40 8 L72 -8 L56 -16 Z" fill="#F44336"/><path d="M40 8 L56 16 L88 0 L72 -8 Z" fill="#FFFFFF"/><path d="M96 16 L96 -10 L80 -18 L80 8 Z" fill="#4E342E"/></g></svg>
            
