<svg width="128" height="148" viewBox="0 0 128 148" xmlns="http://www.w3.org/2000/svg"><g transform="translate(0, 84)"><path d="M64 32 L96 16 L64 0 L32 16 Z" fill="#757575"/><path d="M32 16 L32 -44 L64 -60 L64 0 Z" fill="#616161"/><path d="M64 0 L64 -60 L96 -44 L96 16 Z" fill="#9E9E9E"/><path d="M64 -60 L32 -44 L64 -28 L96 -44 Z" fill="#BDBDBD"/><path d="M72 10 L72 -20 Q80 -30 88 -20 L88 10 Z" fill="#212121"/><circle cx="80" cy="-5"r="5" fill="#FF5722"/><path d="M56 -50 L56 -70 L72 -70 L72 -48 Z" fill="#757575"/><ellipse cx="64" cy="-70" rx="8" ry="4" fill="#424242"/></g></svg>
            
