<svg width="128" height="148" viewBox="0 0 128 148" xmlns="http://www.w3.org/2000/svg"><g transform="translate(0, 84)"><path d="M64 0 L128 32 L64 64 L0 32 Z" fill="#616161"/><path d="M10 27 L10 -20 L64 -47 L64 0 L10 27 Z" fill="#FBC02D"/><path d="M118 27 L118 -20 L64 -47 L64 0 L118 27 Z" fill="#FFF176"/><path d="M64 -47 L10 -20 L64 7 L118 -20 Z" fill="#F57F17"/><path d="M64 -30 L54 -25 L64 -20 L74 -25 Z" fill="#8D6E63"/><path d="M54 -25 L54 -15 L64 -10 L64 -20 Z" fill="#6D4C41"/><path d="M74 -25 L74 -15 L64 -10 L64 -20 Z" fill="#5D4037"/></g></svg>
            
