<svg width="128" height="188" viewBox="0 0 128 188" xmlns="http://www.w3.org/2000/svg"><g transform="translate(0, 124)"><path d="M64 0 L128 32 L64 64 L0 32 Z" fill="#455A64"/><path d="M24 20 L24 -68 L64 -88 L64 0 L24 20 Z" fill="#78909C"/><path d="M104 20 L104 -68 L64 -88 L64 0 L104 20 Z" fill="#90A4AE"/><path d="M64 -88 L24 -68 L64 -48 L104 -68 Z" fill="#37474F"/><path d="M36 -10 L36 0 L48 -6 L48 -16 Z" fill="#B3E5FC"/><path d="M80 -16 L80 -6 L92 0 L92 -10 Z" fill="#B3E5FC"/><path d="M36 -30 L36 -20 L48 -26 L48 -36 Z" fill="#B3E5FC"/><path d="M80 -36 L80 -26 L92 -20 L92 -30 Z" fill="#B3E5FC"/><path d="M36 -50 L36 -40 L48 -46 L48 -56 Z" fill="#B3E5FC"/><path d="M80 -56 L80 -46 L92 -40 L92 -50 Z" fill="#B3E5FC"/></g></svg>
